<?xml version="1.0" encoding="UTF-8"?>
<svg xmlns="http://www.w3.org/2000/svg" xmlns:xlink="http://www.w3.org/1999/xlink" width="80pt" height="116pt" viewBox="0 0 80 116" version="1.1">
<g id="surface1">
<path style=" stroke:none;fill-rule:nonzero;fill:rgb(43.921569%,43.921569%,43.921569%);fill-opacity:1;" d="M 4.898438 0 L 4.898438 0.0507812 L 4.746094 0.0507812 L 4.695312 0.101562 L 4.644531 0.101562 L 4.59375 0.152344 L 4.542969 0.152344 L 4.542969 0.203125 L 4.492188 0.203125 L 4.441406 0.253906 C 4.296875 0.398438 4.234375 0.601562 4.234375 0.917969 L 4.234375 41.152344 C 4.234375 41.464844 4.296875 41.679688 4.441406 41.816406 C 4.574219 41.949219 4.792969 42.019531 5.101562 42.019531 L 15.613281 42.019531 C 19.703125 42.019531 22.21875 41.121094 23.726562 39.160156 C 25.957031 36.488281 26.019531 32.140625 26.019531 25.527344 L 26.019531 16.492188 C 26.019531 9.871094 25.957031 5.582031 23.726562 2.910156 C 22.21875 0.949219 19.703125 0 15.613281 0 Z M 10.917969 4.902344 L 14.59375 4.902344 C 16.234375 4.902344 17.203125 5.167969 17.960938 6.074219 C 19.132812 7.480469 19.234375 10.320312 19.234375 16.03125 L 19.234375 25.988281 C 19.234375 31.691406 19.132812 34.539062 17.960938 35.945312 C 17.203125 36.851562 16.234375 37.117188 14.59375 37.117188 L 10.917969 37.117188 Z M 10.917969 4.902344 "/>
<path style=" stroke:none;fill-rule:nonzero;fill:rgb(43.921569%,43.921569%,43.921569%);fill-opacity:1;" d="M 74.816406 0.898438 L 74.816406 0.839844 L 74.8125 0.8125 L 74.8125 0.785156 L 74.804688 0.730469 L 74.804688 0.707031 L 74.800781 0.679688 L 74.796875 0.660156 L 74.789062 0.632812 L 74.785156 0.613281 L 74.777344 0.589844 L 74.773438 0.566406 L 74.757812 0.527344 L 74.75 0.503906 L 74.734375 0.464844 L 74.726562 0.449219 L 74.714844 0.429688 L 74.707031 0.414062 L 74.695312 0.394531 L 74.683594 0.378906 L 74.675781 0.363281 L 74.664062 0.347656 L 74.652344 0.328125 L 74.605469 0.273438 L 74.578125 0.242188 C 74.441406 0.109375 74.25 0.0117188 73.933594 0.0117188 L 69.019531 0.0117188 C 68.703125 0.0117188 68.507812 0.109375 68.375 0.242188 C 68.230469 0.386719 68.136719 0.578125 68.136719 0.898438 L 68.136719 30.613281 C 68.136719 33.71875 67.902344 35.558594 66.898438 36.667969 C 66.214844 37.417969 65.242188 37.785156 63.886719 37.785156 C 62.667969 37.785156 61.734375 37.441406 61.023438 36.660156 C 60.070312 35.609375 59.773438 33.828125 59.773438 30.613281 L 59.773438 0.898438 C 59.773438 0.578125 59.683594 0.386719 59.542969 0.242188 C 59.40625 0.109375 59.214844 0.0117188 58.894531 0.0117188 L 53.976562 0.0117188 C 53.660156 0.0117188 53.476562 0.109375 53.332031 0.242188 C 53.1875 0.386719 53.101562 0.578125 53.101562 0.898438 L 53.101562 30.621094 C 53.101562 34.953125 53.683594 37.664062 55.402344 39.558594 C 57.1875 41.519531 59.886719 42.566406 63.976562 42.566406 C 68.121094 42.566406 70.773438 41.457031 72.414062 39.546875 C 74.339844 37.316406 74.816406 34.644531 74.816406 30.621094 Z M 74.816406 0.898438 "/>
<path style=" stroke:none;fill-rule:nonzero;fill:rgb(43.921569%,43.921569%,43.921569%);fill-opacity:1;" d="M 43.066406 41.152344 L 43.0625 41.183594 L 43.0625 41.238281 L 43.058594 41.265625 L 43.058594 41.289062 L 43.054688 41.316406 L 43.050781 41.339844 L 43.046875 41.367188 L 43.039062 41.414062 L 43.03125 41.4375 L 43.027344 41.457031 L 43.019531 41.480469 L 43.015625 41.5 L 43.003906 41.523438 L 42.996094 41.542969 L 42.988281 41.558594 L 42.980469 41.582031 L 42.972656 41.597656 L 42.964844 41.617188 L 42.953125 41.632812 L 42.945312 41.652344 L 42.898438 41.714844 L 42.890625 41.730469 L 42.878906 41.742188 L 42.851562 41.773438 L 42.824219 41.800781 C 42.691406 41.933594 42.496094 42.03125 42.179688 42.03125 L 36.796875 42.03125 C 36.488281 42.03125 36.296875 41.933594 36.160156 41.800781 C 36.015625 41.664062 35.921875 41.464844 35.921875 41.152344 L 35.921875 5.324219 L 29.609375 5.324219 C 29.289062 5.324219 29.097656 5.230469 28.953125 5.085938 C 28.808594 4.949219 28.722656 4.757812 28.722656 4.441406 L 28.722656 0.898438 C 28.722656 0.578125 28.808594 0.386719 28.953125 0.242188 C 29.097656 0.109375 29.289062 0.0117188 29.609375 0.0117188 L 49.386719 0.0117188 C 49.699219 0.0117188 49.886719 0.109375 50.03125 0.242188 C 50.167969 0.386719 50.261719 0.578125 50.261719 0.898438 L 50.261719 4.441406 C 50.261719 4.757812 50.167969 4.949219 50.03125 5.085938 C 49.886719 5.230469 49.699219 5.324219 49.386719 5.324219 L 43.066406 5.324219 Z M 43.066406 41.152344 "/>
<path style=" stroke:none;fill-rule:nonzero;fill:rgb(77.254902%,6.666667%,21.568627%);fill-opacity:1;" d="M 79.273438 63.058594 L 62.402344 71.921875 C 40.554688 63.417969 38.710938 63.417969 16.867188 71.921875 L 0 63.058594 L 16.867188 54.195312 C 38.710938 62.699219 40.554688 62.699219 62.402344 54.195312 Z M 79.273438 63.058594 "/>
<path style=" stroke:none;fill-rule:nonzero;fill:rgb(77.254902%,6.666667%,21.568627%);fill-opacity:1;" d="M 79.273438 84.964844 L 62.402344 93.828125 C 40.554688 85.324219 38.710938 85.324219 16.867188 93.828125 L 0 84.964844 L 16.867188 76.101562 C 38.710938 84.605469 40.554688 84.605469 62.402344 76.101562 Z M 79.273438 84.964844 "/>
<path style=" stroke:none;fill-rule:nonzero;fill:rgb(77.254902%,6.666667%,21.568627%);fill-opacity:1;" d="M 79.273438 106.863281 L 62.402344 115.726562 C 40.554688 107.222656 38.710938 107.222656 16.867188 115.726562 L 0 106.863281 L 16.867188 98.007812 C 38.710938 106.511719 40.554688 106.511719 62.402344 98.007812 Z M 79.273438 106.863281 "/>
</g>
</svg>
